<svg width="21" height="14" viewBox="0 0 21 14" fill="none" xmlns="http://www.w3.org/2000/svg">
<path id="Vector" d="M10.2075 9.33443C11.1048 8.73839 11.7864 7.86931 12.1513 6.8558C12.5163 5.84229 12.5453 4.7382 12.234 3.70694C11.9227 2.67568 11.2877 1.77204 10.4229 1.12975C9.55806 0.487462 8.50946 0.140656 7.43224 0.140656C6.35502 0.140656 5.30642 0.487462 4.44162 1.12975C3.57682 1.77204 2.94178 2.67568 2.63048 3.70694C2.31918 4.7382 2.34816 5.84229 2.71313 6.8558C3.07811 7.86931 3.75968 8.73839 4.65698 9.33443C3.12737 9.89867 1.80535 10.9144 0.866149 12.2471C0.81491 12.3189 0.778374 12.4001 0.758646 12.486C0.738918 12.572 0.736386 12.661 0.751197 12.7479C0.766008 12.8349 0.797869 12.918 0.844945 12.9926C0.892021 13.0672 0.953384 13.1317 1.0255 13.1825C1.09762 13.2332 1.17906 13.2693 1.26515 13.2884C1.35123 13.3076 1.44026 13.3095 1.5271 13.2941C1.61394 13.2788 1.69688 13.2464 1.77115 13.1988C1.84542 13.1512 1.90954 13.0894 1.95984 13.017C2.57703 12.139 3.39643 11.4224 4.34885 10.9277C5.30127 10.4329 6.35875 10.1747 7.43199 10.1746C8.50522 10.1746 9.56272 10.4328 10.5152 10.9275C11.4676 11.4221 12.2871 12.1387 12.9043 13.0167C12.9548 13.0886 13.019 13.1498 13.0932 13.1969C13.1674 13.244 13.2502 13.276 13.3368 13.2911C13.4234 13.3062 13.5121 13.304 13.5978 13.2848C13.6836 13.2656 13.7647 13.2296 13.8366 13.179C13.9085 13.1284 13.9696 13.0642 14.0166 12.9899C14.0636 12.9157 14.0955 12.8329 14.1105 12.7463C14.1255 12.6597 14.1233 12.5709 14.104 12.4852C14.0846 12.3995 14.0486 12.3184 13.9979 12.2466C13.0588 10.9142 11.7369 9.89855 10.2075 9.33435V9.33443ZM3.75397 5.15897C3.75397 4.43149 3.9697 3.72034 4.37387 3.11546C4.77803 2.51058 5.35249 2.03913 6.0246 1.76074C6.69671 1.48234 7.43628 1.4095 8.14978 1.55143C8.86329 1.69335 9.51869 2.04367 10.0331 2.55808C10.5475 3.07249 10.8978 3.72788 11.0397 4.44139C11.1817 5.15489 11.1088 5.89446 10.8304 6.56657C10.552 7.23868 10.0806 7.81314 9.47571 8.21731C8.87083 8.62148 8.15968 8.8372 7.4322 8.8372C6.45701 8.83609 5.52208 8.44821 4.83252 7.75865C4.14296 7.06909 3.75508 6.13416 3.75397 5.15897ZM20.6511 13.1785C20.5793 13.2291 20.4982 13.265 20.4125 13.2843C20.3268 13.3035 20.2382 13.3057 20.1516 13.2907C20.0651 13.2756 19.9824 13.2437 19.9082 13.1967C19.834 13.1497 19.7698 13.0886 19.7192 13.0168C19.1012 12.1396 18.2817 11.4236 17.3294 10.929C16.3772 10.4345 15.3201 10.1758 14.2471 10.1747C14.0697 10.1747 13.8996 10.1043 13.7742 9.97886C13.6488 9.85344 13.5783 9.68334 13.5783 9.50597C13.5783 9.3286 13.6488 9.1585 13.7742 9.03308C13.8996 8.90766 14.0697 8.8372 14.2471 8.8372C14.7724 8.83661 15.2914 8.72353 15.7693 8.50558C16.2472 8.28762 16.6729 7.96984 17.0177 7.57362C17.3625 7.17739 17.6184 6.71191 17.7683 6.2085C17.9182 5.70508 17.9585 5.17541 17.8865 4.65511C17.8146 4.13481 17.632 3.63596 17.3512 3.19211C17.0703 2.74826 16.6976 2.36971 16.2582 2.08194C15.8188 1.79416 15.3229 1.60383 14.8038 1.52375C14.2847 1.44367 13.7544 1.4757 13.2487 1.61768C13.0782 1.66497 12.8959 1.64276 12.7418 1.55591C12.5876 1.46907 12.4741 1.32468 12.4262 1.15435C12.3783 0.984021 12.3998 0.801645 12.4861 0.647162C12.5724 0.49268 12.7164 0.378681 12.8865 0.330133C14.037 0.00554594 15.2655 0.102571 16.3507 0.603721C17.436 1.10487 18.3065 1.97718 18.8054 3.06344C19.3044 4.14969 19.3989 5.37844 19.072 6.52822C18.745 7.67801 18.0182 8.6732 17.0223 9.33443C18.5518 9.89861 19.8737 10.9142 20.8128 12.2467C20.9149 12.3917 20.9553 12.5713 20.9249 12.7461C20.8946 12.9208 20.7961 13.0764 20.6511 13.1785Z" fill="white"/>
</svg>
