<svg width="18" height="18" viewBox="0 0 18 18" fill="none" xmlns="http://www.w3.org/2000/svg">
<path id="Vector" d="M16.9268 9.24009C17.2734 8.78214 17.4652 8.22104 17.4652 7.63725C17.4652 6.71103 16.9475 5.83432 16.1141 5.34542C15.8995 5.21958 15.6552 5.15335 15.4065 5.15358H10.4598L10.5836 2.61833C10.6124 2.00566 10.3958 1.42393 9.97501 0.980421C9.76849 0.761816 9.51934 0.587887 9.24294 0.46938C8.96654 0.350874 8.66878 0.290309 8.36805 0.291428C7.29537 0.291428 6.34645 1.01343 6.06178 2.04692L4.28979 8.46239H1.62252C1.25739 8.46239 0.962402 8.75738 0.962402 9.12251V16.6313C0.962402 16.9964 1.25739 17.2914 1.62252 17.2914H14.0265C14.2162 17.2914 14.4019 17.2543 14.5731 17.18C15.555 16.7613 16.1883 15.802 16.1883 14.7376C16.1883 14.4777 16.1512 14.2219 16.0769 13.9743C16.4235 13.5164 16.6153 12.9553 16.6153 12.3715C16.6153 12.1116 16.5782 11.8558 16.504 11.6082C16.8505 11.1503 17.0424 10.5892 17.0424 10.0054C17.0382 9.74549 17.0011 9.48763 16.9268 9.24009ZM2.44766 15.8062V9.94765H4.11857V15.8062H2.44766ZM15.5757 8.52428L15.1239 8.91622L15.4106 9.44019C15.5051 9.61279 15.5541 9.80659 15.553 10.0033C15.553 10.3437 15.4044 10.6676 15.1487 10.8904L14.6969 11.2823L14.9836 11.8063C15.0781 11.9789 15.1271 12.1727 15.126 12.3694C15.126 12.7098 14.9774 13.0337 14.7216 13.2565L14.2699 13.6484L14.5566 14.1724C14.6511 14.345 14.7001 14.5388 14.699 14.7355C14.699 15.1976 14.4267 15.6143 14.0058 15.8041H5.4388V9.88164L7.49134 2.44505C7.54426 2.25444 7.65788 2.08628 7.81496 1.96605C7.97205 1.84581 8.16405 1.78006 8.36186 1.77875C8.51864 1.77875 8.67335 1.82413 8.79712 1.91696C9.00135 2.06961 9.11068 2.30065 9.0983 2.54613L8.90027 6.63883H15.3859C15.7531 6.86368 15.98 7.24325 15.98 7.63725C15.98 7.97762 15.8315 8.29943 15.5757 8.52428Z" fill="white"/>
</svg>
