<svg width="16" height="18" viewBox="0 0 16 18" fill="none" xmlns="http://www.w3.org/2000/svg">
<path id="Vector" d="M3.87135 4.61894C4.04944 4.79554 4.29009 4.89462 4.54089 4.89462C4.79169 4.89462 5.03234 4.79554 5.21043 4.61894C5.29813 4.53202 5.36774 4.42859 5.41524 4.31462C5.46275 4.20065 5.4872 4.0784 5.4872 3.95493C5.4872 3.83145 5.46275 3.7092 5.41524 3.59523C5.36774 3.48127 5.29813 3.37784 5.21043 3.29092C5.03234 3.11432 4.79169 3.01523 4.54089 3.01523C4.29009 3.01523 4.04944 3.11432 3.87135 3.29092C3.5028 3.65824 3.5028 4.25284 3.87135 4.61894ZM14.708 10.1472C14.9377 9.91971 15.1199 9.64894 15.2443 9.35057C15.3687 9.05221 15.4328 8.73215 15.4328 8.40889C15.4328 8.08563 15.3687 7.76558 15.2443 7.46721C15.1199 7.16884 14.9377 6.89808 14.708 6.67055L8.86033 0.859695C8.39785 0.400847 7.77347 0.142272 7.12199 0.139787L3.11213 0.122588C2.78607 0.120311 2.46279 0.182732 2.16102 0.306237C1.85924 0.429742 1.58496 0.611878 1.35405 0.842102C1.12314 1.07233 0.94019 1.34606 0.815789 1.64747C0.691387 1.94888 0.628004 2.27197 0.629312 2.59804L0.658796 6.7418C0.66411 7.38827 0.92463 8.00645 1.38362 8.46172L7.14533 14.1866C7.61049 14.6474 8.23876 14.9059 8.8935 14.9059C9.54825 14.9059 10.1765 14.6474 10.6417 14.1866L14.708 10.1472ZM13.8333 7.53911C13.9482 7.65287 14.0393 7.78825 14.1015 7.93744C14.1637 8.08662 14.1957 8.24665 14.1957 8.40828C14.1957 8.56991 14.1637 8.72993 14.1015 8.87912C14.0393 9.0283 13.9482 9.16368 13.8333 9.27745L9.76697 13.3192C9.28417 13.7984 8.50161 13.7984 8.0188 13.3192L2.25709 7.59316C2.02799 7.36536 1.89817 7.05627 1.89591 6.7332L1.86519 2.58944C1.86438 2.42628 1.89597 2.26458 1.95814 2.11373C2.02032 1.96287 2.11183 1.82587 2.22738 1.71067C2.34292 1.59547 2.48019 1.50436 2.63123 1.44263C2.78227 1.38091 2.94406 1.3498 3.10722 1.3511L7.11708 1.3683C7.44303 1.36938 7.75547 1.49868 7.98686 1.72825L13.8346 7.53911H13.8333ZM15.369 10.8721C15.534 11.3137 15.5685 11.7935 15.4683 12.2543C15.3681 12.715 15.1374 13.1371 14.8039 13.4704L12.3911 15.8832C11.9348 16.3395 11.393 16.7015 10.7968 16.9484C10.2006 17.1954 9.56157 17.3225 8.91623 17.3225C8.27089 17.3225 7.63186 17.1954 7.03565 16.9484C6.43943 16.7015 5.8977 16.3395 5.44139 15.8832L1.16372 11.6055C0.81803 11.2602 0.623599 10.7918 0.623169 10.3033V9.34502L5.44139 14.1632C5.52615 14.248 5.61338 14.3291 5.70183 14.4053L6.30995 15.0146C6.65219 15.3569 7.0585 15.6284 7.50569 15.8137C7.95288 15.9989 8.43219 16.0943 8.91623 16.0943C9.40027 16.0943 9.87958 15.9989 10.3268 15.8137C10.774 15.6284 11.1803 15.3569 11.5225 15.0146L12.1355 14.4016C12.2235 14.3251 12.3087 14.2456 12.3911 14.1632L14.8039 11.7504C15.0532 11.5017 15.246 11.2021 15.369 10.8721Z" fill="white"/>
</svg>
