<svg width="20" height="18" viewBox="0 0 20 18" fill="none" xmlns="http://www.w3.org/2000/svg">
<path id="Vector" d="M9.75441 8.76686C9.25106 8.76686 8.75902 8.91856 8.3405 9.20277C7.92198 9.48699 7.59578 9.89095 7.40316 10.3636C7.21054 10.8362 7.16014 11.3563 7.25834 11.858C7.35654 12.3598 7.59892 12.8206 7.95484 13.1824C8.31076 13.5441 8.76423 13.7905 9.25791 13.8903C9.75159 13.9901 10.2633 13.9388 10.7283 13.7431C11.1934 13.5473 11.5908 13.2158 11.8705 12.7904C12.1501 12.3651 12.2994 11.865 12.2994 11.3534C12.2994 10.6674 12.0312 10.0095 11.554 9.52444C11.0767 9.03937 10.4294 8.76686 9.75441 8.76686ZM9.75441 12.2156C9.58663 12.2156 9.42261 12.165 9.2831 12.0703C9.1436 11.9756 9.03487 11.8409 8.97066 11.6834C8.90645 11.5258 8.88965 11.3525 8.92238 11.1852C8.95512 11.018 9.03591 10.8643 9.15455 10.7438C9.27319 10.6232 9.42435 10.5411 9.58891 10.5078C9.75347 10.4745 9.92404 10.4916 10.079 10.5569C10.2341 10.6221 10.3665 10.7326 10.4598 10.8744C10.553 11.0162 10.6027 11.1829 10.6027 11.3534C10.6027 11.5821 10.5134 11.8014 10.3543 11.9631C10.1952 12.1248 9.9794 12.2156 9.75441 12.2156ZM9.1521 6.79246C9.23278 6.87095 9.32791 6.93248 9.43204 6.97352C9.53359 7.01913 9.64339 7.04269 9.75441 7.04269C9.86543 7.04269 9.97523 7.01913 10.0768 6.97352C10.1809 6.93248 10.276 6.87095 10.3567 6.79246L12.2994 4.85255C12.4636 4.68562 12.5559 4.45922 12.5559 4.22315C12.5559 3.98708 12.4636 3.76068 12.2994 3.59376C12.1351 3.42683 11.9124 3.33305 11.6801 3.33305C11.4478 3.33305 11.2251 3.42683 11.0608 3.59376L10.6027 4.10244V1.0072C10.6027 0.778538 10.5134 0.559238 10.3543 0.397547C10.1952 0.235856 9.9794 0.14502 9.75441 0.14502C9.52942 0.14502 9.31364 0.235856 9.15455 0.397547C8.99546 0.559238 8.90608 0.778538 8.90608 1.0072V4.10244L8.44799 3.59376C8.28375 3.42683 8.06099 3.33305 7.82871 3.33305C7.59644 3.33305 7.37368 3.42683 7.20944 3.59376C7.0452 3.76068 6.95293 3.98708 6.95293 4.22315C6.95293 4.45922 7.0452 4.68562 7.20944 4.85255L9.1521 6.79246ZM15.6927 11.3534C15.6927 11.1829 15.6429 11.0162 15.5497 10.8744C15.4565 10.7326 15.324 10.6221 15.169 10.5569C15.014 10.4916 14.8434 10.4745 14.6788 10.5078C14.5143 10.5411 14.3631 10.6232 14.2445 10.7438C14.1259 10.8643 14.0451 11.018 14.0123 11.1852C13.9796 11.3525 13.9964 11.5258 14.0606 11.6834C14.1248 11.8409 14.2335 11.9756 14.373 12.0703C14.5126 12.165 14.6766 12.2156 14.8443 12.2156C15.0693 12.2156 15.2851 12.1248 15.4442 11.9631C15.6033 11.8014 15.6927 11.5821 15.6927 11.3534ZM16.541 5.31812H13.996C13.771 5.31812 13.5553 5.40896 13.3962 5.57065C13.2371 5.73234 13.1477 5.95164 13.1477 6.18031C13.1477 6.40897 13.2371 6.62827 13.3962 6.78996C13.5553 6.95166 13.771 7.04249 13.996 7.04249H16.541C16.766 7.04249 16.9818 7.13333 17.1409 7.29502C17.2999 7.45671 17.3893 7.67601 17.3893 7.90468V14.8022C17.3893 15.0308 17.2999 15.2501 17.1409 15.4118C16.9818 15.5735 16.766 15.6643 16.541 15.6643H2.96782C2.74283 15.6643 2.52706 15.5735 2.36797 15.4118C2.20887 15.2501 2.1195 15.0308 2.1195 14.8022V7.90468C2.1195 7.67601 2.20887 7.45671 2.36797 7.29502C2.52706 7.13333 2.74283 7.04249 2.96782 7.04249H5.51279C5.73778 7.04249 5.95355 6.95166 6.11265 6.78996C6.27174 6.62827 6.36111 6.40897 6.36111 6.18031C6.36111 5.95164 6.27174 5.73234 6.11265 5.57065C5.95355 5.40896 5.73778 5.31812 5.51279 5.31812H2.96782C2.29285 5.31812 1.64553 5.59064 1.16826 6.07571C0.690982 6.56078 0.422852 7.21868 0.422852 7.90468V14.8022C0.422852 15.4881 0.690982 16.146 1.16826 16.6311C1.64553 17.1162 2.29285 17.3887 2.96782 17.3887H16.541C17.216 17.3887 17.8633 17.1162 18.3406 16.6311C18.8178 16.146 19.086 15.4881 19.086 14.8022V7.90468C19.086 7.21868 18.8178 6.56078 18.3406 6.07571C17.8633 5.59064 17.216 5.31812 16.541 5.31812ZM3.81614 11.3534C3.81614 11.5239 3.8659 11.6906 3.95911 11.8324C4.05233 11.9742 4.18482 12.0847 4.33983 12.15C4.49484 12.2152 4.66541 12.2323 4.82997 12.199C4.99453 12.1658 5.14568 12.0836 5.26432 11.9631C5.38296 11.8425 5.46376 11.6889 5.49649 11.5216C5.52922 11.3544 5.51242 11.181 5.44822 11.0235C5.38401 10.8659 5.27528 10.7313 5.13577 10.6365C4.99626 10.5418 4.83225 10.4912 4.66447 10.4912C4.43948 10.4912 4.2237 10.5821 4.06461 10.7438C3.90552 10.9054 3.81614 11.1247 3.81614 11.3534Z" fill="white"/>
</svg>
